# xmcd CD database file generated by OrangeCD 6.2
#
# Track frame offsets:
#	150
#	11135
#	21682
#	34970
#	47337
#	58957
#	73372
#	81560
#	96360
#	108495
#	116290
#	126357
#	138607
#	151390
#	167387
#	175095
#	186360
#	197492
#	209740
#	222735
#
# Disc length: 3111 seconds
#
# Revision: 0
# Processed by: cddbd v1.5.2PL0 Copyright (c) Steve Scherf et al.
# Submitted via: OrangeCD 6.2
#
DISCID=3c0c2514
DTITLE=Various Artist - How Great Thou Art
DYEAR=1900
DGENRE=Gospel
TTITLE0=Norma Jean - Heaven's Just A Prayer Away
TTITLE1=Hank Snow - This Train
TTITLE2=Stuart Hamblen - This Ole House
TTITLE3=Connie Smith - In The Garden
TTITLE4=Jim Reeves - I'll Fly Away
TTITLE5=Willie Nelson - Family Bible
TTITLE6=The Statesmen Quartet with Hovie Lister - Turn Your Radio On
TTITLE7=Roy Rogers and Dale Evans - What A Friend We Have In Jesus
TTITLE8=Kitty Wells - Don't Wait The Last Minute To Pray
TTITLE9=Porter Wagoner and the Blackwood Brothers - When I Reach That City
TTITLE10=Blackwood Brothers - How Great Thou Art
TTITLE11=Bobby Bare - Just A Closer Walk With Thee
TTITLE12=Eddy Arnold - The Unclouded Day
TTITLE13=Dottie West - His Eye Is On The Sparrow
TTITLE14=The Browns - The Church In The Wildwood
TTITLE15=Martha Carson - He'll Understand and Say Well Done
TTITLE16=Chet Atkins - The Old Rugged Cross
TTITLE17=George Hamilton - Life's Railway To Heaven
TTITLE18=Sons Of The Pioneers - The Touch of God's Hand
TTITLE19=Don Gibson - Satisfied
EXTD=
EXTT0=
EXTT1=
EXTT2=
EXTT3=
EXTT4=
EXTT5=
EXTT6=
EXTT7=
EXTT8=
EXTT9=
EXTT10=
EXTT11=
EXTT12=
EXTT13=
EXTT14=
EXTT15=
EXTT16=
EXTT17=
EXTT18=
EXTT19=
PLAYORDER=
